<svg width="50" height="50" viewBox="0 0 64 64" xmlns="http://www.w3.org/2000/svg">
  <defs>
    <linearGradient id="bggrad" x1="0" y1="0" x2="1" y2="1">
      <stop offset="0%" stop-color="#0f172a" />
      <stop offset="100%" stop-color="#1d4ed8" />
    </linearGradient>
  </defs>
  <rect width="64" height="64" rx="16" fill="url(#bggrad)" />
  <path d="M18 42 L18 22 C18 20.9 18.9 20 20 20 H27 C28.1 20 29 20.9 29 22 V28 C29 29.1 28.1 30 27 30 H22 V42 C22 43.1 21.1 44 20 44 H20 C18.9 44 18 43.1 18 42 Z" fill="#eff6ff" />
  <path d="M34 20 H42 C43.1 20 44 20.9 44 22 V42 C44 43.1 43.1 44 42 44 H34 C32.9 44 32 43.1 32 42 V22 C32 20.9 32.9 20 34 20 Z" fill="#93c5fd" />
  <path d="M32 24 H44" stroke="#0f172a" stroke-width="4" stroke-linecap="round" />
  <path d="M32 34 H44" stroke="#0f172a" stroke-width="4" stroke-linecap="round" />
</svg>